<svg width="555" height="387" viewBox="0 0 555 387" fill="none" xmlns="http://www.w3.org/2000/svg">
<path d="M554 194.515C554 249.02 547.82 288.082 535.834 316.04C523.868 343.95 506.105 360.818 482.817 370.953C459.476 381.11 430.531 384.527 396.172 385.385C376.215 385.883 354.511 385.519 331.068 385.126C314.12 384.841 296.263 384.542 277.5 384.542C264.778 384.542 251.867 384.811 238.914 385.082C219.323 385.491 199.638 385.901 180.378 385.385C148.425 384.527 117.856 381.113 91.2953 370.936C64.7632 360.769 42.2239 343.851 26.2983 315.939C10.3587 288.001 1 248.972 1 194.515C1 139.068 9.61318 99.4002 24.6258 71.0636C39.6219 42.7584 61.038 25.6929 86.8055 15.4959C112.608 5.28495 142.794 1.95355 175.313 1.18897C194.274 0.743142 213.944 1.16867 233.973 1.60195C248.34 1.91277 262.893 2.22758 277.5 2.22759C290.646 2.22759 303.756 2.00686 316.73 1.78843C338.242 1.42622 359.378 1.07035 379.678 1.73787C412.194 2.80708 442.382 6.50273 468.187 16.9572C493.959 27.3983 515.379 44.5882 530.375 72.7132C545.388 100.867 554 140.047 554 194.515Z" fill="white" stroke="#68490C" stroke-width="2"/>
</svg>
