<svg width="209" height="76" viewBox="0 0 209 76" fill="none" xmlns="http://www.w3.org/2000/svg">
<rect width="209" height="76" fill="#765411"/>
<path d="M51.6399 13.5041C51.6399 14.5921 51.3599 15.5201 50.7999 16.2881C50.2559 17.0561 49.5039 17.5761 48.5439 17.8481L52.7199 25.0001H49.6479L45.3759 17.4161C45.2799 17.2401 45.2319 17.0801 45.2319 16.9361C46.4319 16.9361 47.3199 16.6721 47.8959 16.1441C48.4719 15.6001 48.7599 14.7521 48.7599 13.6001C48.7599 12.6401 48.5119 11.9281 48.0159 11.4641C47.5359 10.9841 46.7919 10.7441 45.7839 10.7441C45.2879 10.7441 44.7759 10.7841 44.2479 10.8641V25.0001H41.4399V9.25605C43.3279 9.12805 44.8319 9.06405 45.9519 9.06405C49.7439 9.06405 51.6399 10.5441 51.6399 13.5041Z" fill="white"/>
<path d="M62.2299 9.16005V10.9361H56.9979V15.9761H61.5099V17.7521H56.9979V23.2241H62.5659L62.3979 25.0001H54.1899V9.16005H62.2299Z" fill="white"/>
<path d="M74.4334 12.8081C74.4334 13.4801 74.2334 14.1201 73.8334 14.7281C73.4334 15.3201 72.9214 15.7921 72.2974 16.1441C73.3534 16.3521 74.1614 16.8321 74.7214 17.5841C75.2974 18.3361 75.5854 19.2641 75.5854 20.3681C75.5854 21.4401 75.2894 22.3441 74.6974 23.0801C74.1054 23.8001 73.3134 24.3441 72.3214 24.7121C71.3454 25.0641 70.2814 25.2401 69.1294 25.2401C67.7854 25.2401 66.3134 25.1201 64.7134 24.8801V9.25605C66.6014 9.12805 68.1054 9.06405 69.2254 9.06405C70.8574 9.06405 72.1294 9.34405 73.0414 9.90405C73.9694 10.4641 74.4334 11.4321 74.4334 12.8081ZM67.5214 15.6641C67.8894 15.7121 68.2974 15.7361 68.7454 15.7361C69.6894 15.7361 70.3934 15.5201 70.8574 15.0881C71.3214 14.6561 71.5534 13.9761 71.5534 13.0481C71.5534 11.5121 70.7214 10.7441 69.0574 10.7441C68.5614 10.7441 68.0494 10.7841 67.5214 10.8641V15.6641ZM67.5214 23.4161C68.0974 23.5121 68.6334 23.5601 69.1294 23.5601C70.2494 23.5601 71.1054 23.3041 71.6974 22.7921C72.3054 22.2801 72.6094 21.4961 72.6094 20.4401C72.6094 19.2401 72.2814 18.4321 71.6254 18.0161C70.9854 17.5841 69.9774 17.3681 68.6014 17.3681C68.1694 17.3681 67.8094 17.3921 67.5214 17.4401V23.4161Z" fill="white"/>
<path d="M77.6743 9.16005H80.4823V23.2241H85.7143L85.5463 25.0001H77.6743V9.16005Z" fill="white"/>
<path d="M93.8117 9.16005L97.9157 25.0001H95.0837L94.1237 20.9681H89.4197L88.4837 25.0001H85.8437L90.2357 9.16005H93.8117ZM89.8517 19.1921H93.7157L91.7717 10.9601L89.8517 19.1921Z" fill="white"/>
<path d="M104.754 10.3601C103.538 10.3601 102.73 11.0001 102.33 12.2801C101.946 13.5441 101.754 15.1281 101.754 17.0321C101.754 18.9361 101.962 20.4641 102.378 21.6161C102.794 22.7521 103.666 23.3201 104.994 23.3201C105.826 23.3201 106.538 23.0881 107.13 22.6241C107.722 22.1601 108.146 21.5201 108.402 20.7041C108.738 20.8161 108.978 20.9921 109.122 21.2321C109.266 21.4561 109.338 21.7521 109.338 22.1201C109.338 22.8401 109.114 23.4561 108.666 23.9681C108.234 24.4801 107.666 24.8641 106.962 25.1201C106.274 25.3921 105.538 25.5281 104.754 25.5281C102.578 25.5281 101.026 24.7761 100.098 23.2721C99.186 21.7681 98.73 19.7281 98.73 17.1521C98.73 14.5921 99.218 12.5441 100.194 11.0081C101.186 9.45605 102.778 8.68005 104.97 8.68005C106.378 8.68005 107.498 8.96005 108.33 9.52005C109.178 10.0801 109.602 10.9681 109.602 12.1841C109.602 12.7601 109.434 13.2321 109.098 13.6001C108.762 13.9521 108.306 14.1281 107.73 14.1281C107.17 14.1281 106.754 14.0001 106.482 13.7441C106.61 13.3921 106.674 12.9921 106.674 12.5441C106.674 11.0881 106.034 10.3601 104.754 10.3601Z" fill="white"/>
<path d="M114.443 25.0001H111.635V9.16005H114.443V25.0001ZM119.339 9.16005H122.243L117.635 16.5281L122.579 25.0001H119.507L114.947 16.9841L119.339 9.16005Z" fill="white"/>
<path d="M123.494 20.3921C123.318 20.1521 123.23 19.8321 123.23 19.4321C123.23 18.6961 123.686 18.3041 124.598 18.2561L130.526 18.0641C130.606 18.1921 130.67 18.3521 130.718 18.5441C130.766 18.7201 130.79 18.8801 130.79 19.0241C130.79 19.4081 130.67 19.6961 130.43 19.8881C130.19 20.0641 129.846 20.1681 129.398 20.2001L123.494 20.3921Z" fill="white"/>
<path d="M143.585 13.5041C143.585 14.5921 143.305 15.5201 142.745 16.2881C142.201 17.0561 141.449 17.5761 140.489 17.8481L144.665 25.0001H141.593L137.321 17.4161C137.225 17.2401 137.177 17.0801 137.177 16.9361C138.377 16.9361 139.265 16.6721 139.841 16.1441C140.417 15.6001 140.705 14.7521 140.705 13.6001C140.705 12.6401 140.457 11.9281 139.961 11.4641C139.481 10.9841 138.737 10.7441 137.729 10.7441C137.233 10.7441 136.721 10.7841 136.193 10.8641V25.0001H133.385V9.25605C135.273 9.12805 136.777 9.06405 137.897 9.06405C141.689 9.06405 143.585 10.5441 143.585 13.5041Z" fill="white"/>
<path d="M154.175 9.16005V10.9361H148.943V15.9761H153.455V17.7521H148.943V23.2241H154.511L154.343 25.0001H146.135V9.16005H154.175Z" fill="white"/>
<path d="M156.659 9.25605C158.547 9.12805 160.211 9.06405 161.651 9.06405C165.843 9.06405 167.939 11.6081 167.939 16.6961C167.939 22.3921 165.651 25.2401 161.075 25.2401C159.731 25.2401 158.259 25.1201 156.659 24.8801V9.25605ZM161.075 23.5601C162.195 23.5601 163.043 23.2801 163.619 22.7201C164.195 22.1601 164.571 21.4241 164.747 20.5121C164.923 19.5841 165.011 18.4241 165.011 17.0321C165.011 15.1761 164.763 13.6641 164.267 12.4961C163.771 11.3281 162.843 10.7441 161.483 10.7441C160.891 10.7441 160.219 10.7841 159.467 10.8641V23.4161C160.043 23.5121 160.579 23.5601 161.075 23.5601Z" fill="white"/>
<path d="M60.6158 46.7041C62.2638 46.7041 63.5758 47.0241 64.5518 47.6641C65.5438 48.3041 66.0398 49.2721 66.0398 50.5681C66.0398 51.4481 65.7918 52.2401 65.2958 52.9441C64.8158 53.6481 64.1598 54.1921 63.3278 54.5761C64.3998 54.7841 65.2558 55.2241 65.8958 55.8961C66.5518 56.5681 66.8798 57.4161 66.8798 58.4401C66.8798 59.4641 66.6078 60.3601 66.0638 61.1281C65.5198 61.8961 64.7598 62.4881 63.7838 62.9041C62.8078 63.3201 61.6798 63.5281 60.3998 63.5281C59.0878 63.5281 57.9758 63.2721 57.0638 62.7601C56.1518 62.2321 55.6958 61.4321 55.6958 60.3601C55.6958 59.7201 55.8958 59.3041 56.2958 59.1121C57.0158 60.5841 58.3678 61.3201 60.3518 61.3201C61.4878 61.3201 62.3518 61.0801 62.9438 60.6001C63.5518 60.1201 63.8558 59.4001 63.8558 58.4401C63.8558 57.4961 63.5438 56.8001 62.9198 56.3521C62.2958 55.9041 61.4398 55.6801 60.3518 55.6801C59.9358 55.6801 59.5358 55.7041 59.1518 55.7521V54.2401C60.3358 54.2081 61.3038 53.9361 62.0558 53.4241C62.8078 52.9121 63.1838 52.1521 63.1838 51.1441C63.1838 50.4081 62.9118 49.8561 62.3678 49.4881C61.8398 49.1041 61.0878 48.9121 60.1118 48.9121C59.2958 48.9121 58.6078 49.1121 58.0478 49.5121C57.4878 49.9121 57.0878 50.5041 56.8478 51.2881C56.5118 51.1761 56.2718 51.0081 56.1278 50.7841C55.9838 50.5441 55.9118 50.2401 55.9118 49.8721C55.9118 49.1841 56.1438 48.6001 56.6078 48.1201C57.0718 47.6401 57.6638 47.2881 58.3838 47.0641C59.1038 46.8241 59.8478 46.7041 60.6158 46.7041Z" fill="white"/>
<path d="M74.4402 46.6801C76.4562 46.6801 77.8962 47.4401 78.7602 48.9601C79.6242 50.4641 80.0562 52.4321 80.0562 54.8641C80.0562 57.3441 79.6162 59.4081 78.7362 61.0561C77.8722 62.7041 76.4402 63.5281 74.4402 63.5281C72.4402 63.5281 71.0082 62.7521 70.1442 61.2001C69.2962 59.6321 68.8722 57.6161 68.8722 55.1521C68.8722 52.6881 69.2962 50.6641 70.1442 49.0801C71.0082 47.4801 72.4402 46.6801 74.4402 46.6801ZM74.4402 61.8481C75.4962 61.8481 76.1922 61.2401 76.5282 60.0241C76.8642 58.8081 77.0322 57.1441 77.0322 55.0321C77.0322 53.0641 76.8562 51.4641 76.5042 50.2321C76.1682 48.9841 75.4802 48.3601 74.4402 48.3601C73.4162 48.3601 72.7362 48.9761 72.4002 50.2081C72.0642 51.4401 71.8962 53.0481 71.8962 55.0321C71.8962 57.1441 72.0562 58.8081 72.3762 60.0241C72.7122 61.2401 73.4002 61.8481 74.4402 61.8481Z" fill="white"/>
<path d="M87.4246 46.6801C89.4406 46.6801 90.8806 47.4401 91.7446 48.9601C92.6086 50.4641 93.0406 52.4321 93.0406 54.8641C93.0406 57.3441 92.6006 59.4081 91.7206 61.0561C90.8566 62.7041 89.4246 63.5281 87.4246 63.5281C85.4246 63.5281 83.9926 62.7521 83.1286 61.2001C82.2806 59.6321 81.8566 57.6161 81.8566 55.1521C81.8566 52.6881 82.2806 50.6641 83.1286 49.0801C83.9926 47.4801 85.4246 46.6801 87.4246 46.6801ZM87.4246 61.8481C88.4806 61.8481 89.1766 61.2401 89.5126 60.0241C89.8486 58.8081 90.0166 57.1441 90.0166 55.0321C90.0166 53.0641 89.8406 51.4641 89.4886 50.2321C89.1526 48.9841 88.4646 48.3601 87.4246 48.3601C86.4006 48.3601 85.7206 48.9761 85.3846 50.2081C85.0486 51.4401 84.8806 53.0481 84.8806 55.0321C84.8806 57.1441 85.0406 58.8081 85.3606 60.0241C85.6966 61.2401 86.3846 61.8481 87.4246 61.8481Z" fill="white"/>
<path d="M100.409 46.6801C102.425 46.6801 103.865 47.4401 104.729 48.9601C105.593 50.4641 106.025 52.4321 106.025 54.8641C106.025 57.3441 105.585 59.4081 104.705 61.0561C103.841 62.7041 102.409 63.5281 100.409 63.5281C98.4089 63.5281 96.9769 62.7521 96.1129 61.2001C95.2649 59.6321 94.8409 57.6161 94.8409 55.1521C94.8409 52.6881 95.2649 50.6641 96.1129 49.0801C96.9769 47.4801 98.4089 46.6801 100.409 46.6801ZM100.409 61.8481C101.465 61.8481 102.161 61.2401 102.497 60.0241C102.833 58.8081 103.001 57.1441 103.001 55.0321C103.001 53.0641 102.825 51.4641 102.473 50.2321C102.137 48.9841 101.449 48.3601 100.409 48.3601C99.3849 48.3601 98.7049 48.9761 98.3689 50.2081C98.0329 51.4401 97.8649 53.0481 97.8649 55.0321C97.8649 57.1441 98.0249 58.8081 98.3449 60.0241C98.6809 61.2401 99.3689 61.8481 100.409 61.8481Z" fill="white"/>
<path d="M108.353 58.3921C108.177 58.1521 108.089 57.8321 108.089 57.4321C108.089 56.6961 108.545 56.3041 109.457 56.2561L115.385 56.0641C115.465 56.1921 115.529 56.3521 115.577 56.5441C115.625 56.7201 115.649 56.8801 115.649 57.0241C115.649 57.4081 115.529 57.6961 115.289 57.8881C115.049 58.0641 114.705 58.1681 114.257 58.2001L108.353 58.3921Z" fill="white"/>
<path d="M128.444 51.6241C128.444 53.0161 128.036 54.1441 127.22 55.0081C126.404 55.8561 125.308 56.2801 123.932 56.2801C123.42 56.2801 122.972 56.2001 122.588 56.0401C122.204 55.8641 122.012 55.5761 122.012 55.1761C123.228 55.1761 124.124 54.8961 124.7 54.3361C125.276 53.7761 125.564 52.9041 125.564 51.7201C125.564 50.7121 125.316 49.9681 124.82 49.4881C124.34 48.9921 123.596 48.7441 122.588 48.7441C122.092 48.7441 121.58 48.7841 121.052 48.8641V63.0001H118.244V47.2561C120.132 47.1281 121.636 47.0641 122.756 47.0641C124.58 47.0641 125.98 47.4241 126.956 48.1441C127.948 48.8481 128.444 50.0081 128.444 51.6241Z" fill="white"/>
<path d="M132.935 63.0001H130.127V47.1601H132.935V63.0001ZM137.831 47.1601H140.735L136.127 54.5281L141.071 63.0001H137.999L133.439 54.9841L137.831 47.1601Z" fill="white"/>
<path d="M152.21 51.5041C152.21 52.5921 151.93 53.5201 151.37 54.2881C150.826 55.0561 150.074 55.5761 149.114 55.8481L153.29 63.0001H150.218L145.946 55.4161C145.85 55.2401 145.802 55.0801 145.802 54.9361C147.002 54.9361 147.89 54.6721 148.466 54.1441C149.042 53.6001 149.33 52.7521 149.33 51.6001C149.33 50.6401 149.082 49.9281 148.586 49.4641C148.106 48.9841 147.362 48.7441 146.354 48.7441C145.858 48.7441 145.346 48.7841 144.818 48.8641V63.0001H142.01V47.2561C143.898 47.1281 145.402 47.0641 146.522 47.0641C150.314 47.0641 152.21 48.5441 152.21 51.5041Z" fill="white"/>
</svg>
