<svg width="76" height="67" viewBox="0 0 76 67" fill="none" xmlns="http://www.w3.org/2000/svg">
<path d="M64.3168 66.5H42.5256V49.4668V48.9668H42.0256H32.6362H32.1362V49.4668V66.5H11.6863C10.4458 66.5 9.50368 65.5728 9.50368 64.4952V41.5064V41.0064H9.00368H5.36532C2.64928 41.0064 0.5 38.952 0.5 36.4969C0.5 35.3113 1.00772 34.1658 1.91716 33.3167C1.9172 33.3166 1.91725 33.3166 1.91729 33.3165L36.448 1.09934L36.4485 1.09888C36.6493 0.911037 36.8896 0.760342 37.1566 0.656969C37.4235 0.553583 37.7108 0.5 38.0016 0.5C38.2924 0.5 38.5796 0.553584 38.8466 0.656969C39.1135 0.760342 39.3538 0.911037 39.5546 1.09888L39.5551 1.09934L74.0859 33.3165C74.0859 33.3166 74.0859 33.3166 74.086 33.3167C75.9701 35.076 75.97 37.9109 74.0935 39.67L74.0927 39.6708C73.184 40.5263 71.942 41.0064 70.6378 41.0064H66.9995H66.4995V41.5064V64.4952C66.4995 65.5728 65.5574 66.5 64.3168 66.5Z" fill="#68490C" stroke="white"/>
</svg>
