<svg width="69" height="69" viewBox="0 0 69 69" fill="none" xmlns="http://www.w3.org/2000/svg">
<path d="M58.3929 68.5H38.6548V50.9434V50.4434H38.1548H29.6303H29.1303V50.9434V68.5H10.61C9.5656 68.5 8.6744 67.5986 8.6744 66.4205V42.7453V42.2453H8.1744H4.87115C2.48721 42.2453 0.5 40.1831 0.5 37.5863C0.5 36.3405 0.970859 35.1503 1.79433 34.2781C1.79437 34.278 1.79441 34.278 1.79445 34.278L33.1447 1.09905L33.1452 1.09856C33.3259 0.906793 33.539 0.756292 33.7714 0.654182C34.0038 0.552109 34.2517 0.5 34.5014 0.5C34.7511 0.5 34.9991 0.552109 35.2314 0.654182C35.4639 0.756291 35.6769 0.906792 35.8577 1.09856L35.8581 1.09905L67.2084 34.278C67.2084 34.278 67.2085 34.278 67.2085 34.2781C68.9294 36.1008 68.9294 39.0647 67.2153 40.8873L67.2146 40.8881C66.3938 41.7647 65.2844 42.2453 64.1317 42.2453H60.8285H60.3285V42.7453V66.4205C60.3285 67.5986 59.4373 68.5 58.3929 68.5Z" fill="#6C4D11" stroke="white"/>
</svg>
