<svg width="581" height="674" viewBox="0 0 581 674" fill="none" xmlns="http://www.w3.org/2000/svg">
<path d="M580 339.095C580 434.18 573.528 502.452 560.93 551.385C548.334 600.308 529.641 629.801 505.267 647.465C480.878 665.139 450.647 671.085 414.716 672.579C396.755 673.326 377.405 672.96 356.682 672.405C353.341 672.316 349.963 672.222 346.551 672.126C328.809 671.631 310.113 671.109 290.5 671.109C277.213 671.109 263.689 671.579 250.131 672.05C246.643 672.171 243.153 672.292 239.664 672.405C222.6 672.96 205.55 673.325 188.845 672.579C155.433 671.086 123.494 665.144 95.7355 647.431C40.2668 612.037 1 529.283 1 339.095C1 145.47 37.1406 61.7458 91.0371 26.2278C118.001 8.45841 149.536 2.66054 183.54 1.32915C200.54 0.663529 218.13 1.1147 236.055 1.73397C239.016 1.83625 241.985 1.94313 244.963 2.05029C260.003 2.59155 275.244 3.14001 290.5 3.14003C304.286 3.14005 318.02 2.75482 331.604 2.37379C354.11 1.74249 376.205 1.12272 397.445 2.28576C431.444 4.14752 462.984 10.579 489.954 28.7744C543.864 65.145 580 148.884 580 339.095Z" fill="white" stroke="#68490C" stroke-width="2"/>
</svg>
