<svg width="282" height="312" viewBox="0 0 282 312" fill="none" xmlns="http://www.w3.org/2000/svg">
<path d="M281 156.97C281 200.967 277.859 232.514 271.763 255.096C265.671 277.662 256.653 291.185 244.958 299.269C233.24 307.368 218.683 310.115 201.271 310.805C191.143 311.207 180.161 310.914 168.277 310.597C159.665 310.367 150.58 310.125 141 310.125C134.542 310.125 127.968 310.343 121.387 310.561C119.694 310.617 118.002 310.673 116.31 310.725C108.03 310.981 99.7693 311.15 91.6807 310.806C75.4987 310.116 60.0937 307.372 46.726 299.237C20.0571 283.007 1 244.972 1 156.97C1 67.3565 18.5487 28.8815 44.4517 12.6012C57.4291 4.44477 72.6326 1.76707 89.1031 1.15202C97.3355 0.844604 105.858 1.05285 114.558 1.33949C115.993 1.38679 117.434 1.43624 118.879 1.48582C126.179 1.73639 133.586 1.99063 141 1.99064C147.721 1.99064 154.399 1.81181 160.996 1.63513C171.903 1.34306 182.588 1.05691 192.882 1.59452C209.348 2.45446 224.556 5.42335 237.539 13.7771C263.456 30.4527 281 68.943 281 156.97Z" fill="white" stroke="#68490C" stroke-width="2"/>
</svg>
