<svg width="64" height="49" viewBox="0 0 64 49" fill="none" xmlns="http://www.w3.org/2000/svg">
<path d="M61.7143 0H2.28571C1.02143 0 0 0.995312 0 2.22727V46.7727C0 48.0047 1.02143 49 2.28571 49H61.7143C62.9786 49 64 48.0047 64 46.7727V2.22727C64 0.995312 62.9786 0 61.7143 0ZM55.9429 7.57969L33.4071 24.667C32.85 25.0916 32.0714 25.0916 31.5143 24.667L8.97143 7.57969C8.88645 7.51578 8.82412 7.42757 8.79318 7.32741C8.76224 7.22726 8.76423 7.12017 8.79888 7.02118C8.83354 6.92218 8.89911 6.83623 8.98641 6.77537C9.07372 6.71451 9.17837 6.6818 9.28571 6.68182H55.6286C55.7359 6.6818 55.8406 6.71451 55.9279 6.77537C56.0152 6.83623 56.0808 6.92218 56.1154 7.02118C56.1501 7.12017 56.1521 7.22726 56.1211 7.32741C56.0902 7.42757 56.0278 7.51578 55.9429 7.57969V7.57969Z" fill="#604510"/>
</svg>
