<svg width="132" height="94" viewBox="0 0 132 94" fill="none" xmlns="http://www.w3.org/2000/svg">
<path d="M47.3026 18.9672L47.303 18.9674C57.2683 23.82 67.135 21.7294 72.7622 19.719C73.7138 19.388 74.6477 19.0155 75.5601 18.603C75.8797 19.0756 76.2433 19.6135 76.6431 20.2054C78.2006 22.5109 80.3075 25.6344 82.5061 28.9075C86.9265 35.4881 91.6476 42.5702 93.0792 44.9057C93.3241 45.306 93.5749 45.7229 93.8293 46.1457C94.519 47.2921 95.2347 48.4817 95.9292 49.5004C99.3588 54.5314 104.306 58.3169 109.538 61.4431L109.539 61.4437C112.189 63.0255 114.686 64.2675 116.661 65.1944C117.67 65.6678 118.461 66.024 119.071 66.2986C119.757 66.6076 120.214 66.8133 120.494 66.9665C120.725 67.0929 121.026 67.2362 121.378 67.4036C122.683 68.0242 124.682 68.975 126.359 70.6143C127.352 71.5856 127.992 72.6029 128.217 73.665C128.366 74.3649 128.372 75.2557 127.989 76.3878C127.341 76.3609 126.538 76.3203 125.594 76.2589C122.801 76.0774 118.784 75.7148 113.931 74.9908C104.21 73.5409 91.2 70.6518 77.9629 64.9095C67.837 60.5157 62.2871 56.1208 55.9958 51.1001L55.841 50.9765C49.4916 45.9092 42.4302 40.2737 29.5979 33.7868L29.5973 33.7864C21.2285 29.5585 16.2525 26.5598 13.404 24.653C12.5547 24.0845 11.8981 23.6154 11.3998 23.2422C11.8999 22.0121 12.7978 20.1071 14.3519 17.5853C15.7973 15.2398 18.7066 11.9726 21.6212 9.05056C23.0493 7.61884 24.4243 6.32387 25.5365 5.33299C26.0935 4.83685 26.5721 4.42803 26.9501 4.12156C27.1392 3.96831 27.2927 3.84905 27.4112 3.76142C27.5125 3.6864 27.5642 3.65236 27.5754 3.645C27.5783 3.64306 27.5785 3.64297 27.576 3.64447L27.5778 3.64337C27.9643 3.41183 28.2591 3.25389 28.5027 3.14795C28.7428 3.04353 28.8703 3.01782 28.9177 3.0118C28.9184 3.01172 28.919 3.01164 28.9196 3.01156C28.9516 3.0258 29.0309 3.06726 29.1589 3.17136L29.1602 3.17245C29.1554 3.16851 29.1601 3.17314 29.1762 3.18898C29.2254 3.2374 29.3812 3.39057 29.6959 3.7239C29.974 4.0184 30.3061 4.37734 30.6997 4.80288C30.8253 4.9386 30.9571 5.08109 31.0954 5.23042C32.223 6.44778 33.7064 8.03617 35.3948 9.71365C38.7 12.9975 43.0597 16.9003 47.3026 18.9672Z" fill="white" stroke="#68490C" stroke-width="6"/>
<path d="M78.2026 70.3188L78.2022 70.3187C69.6435 66.8947 63.3417 62.1065 59.1901 58.8669C64.2542 62.5375 70.6173 66.6486 79.6204 70.647C80.8531 71.1944 82.0566 71.7021 83.2326 72.1739C81.5607 71.6078 79.8818 70.9908 78.2026 70.3188ZM54.3023 55.2056C54.3381 55.2329 54.3739 55.2603 54.4099 55.2877C47.3806 50.3075 36.7651 43.7085 27.4023 38.0583C25.8744 37.1363 24.3761 36.2373 22.9275 35.3721C32.1659 39.7878 44.5494 48.0081 50.7488 52.5325C51.8858 53.3624 53.0597 54.2578 54.3023 55.2056Z" fill="#5C410D" stroke="#68490C" stroke-width="6"/>
<mask id="path-3-inside-1_133_15" fill="white">
<path d="M79.3464 55.2852L78.1058 54.1113C58.2229 35.323 42.4311 40.6057 39.4557 41.8579C38.9577 42.0689 37.1386 42.8014 37.1386 42.8014L35.0849 38.6902C35.0884 38.6898 36.8254 37.9892 37.3065 37.7865C40.7901 36.319 58.9062 30.1509 80.6052 49.6872C82.4555 48.6555 85.7499 46.5304 89.4675 42.8104C88.0807 40.3703 84.9349 34.9517 81.7897 30.4348C77.5735 24.3746 71.7503 16.8781 71.7503 16.8781C73.7949 16.1395 76.5597 14.7237 76.5597 14.7237C76.5597 14.7237 82.0131 21.8432 86.2823 27.9838C90.5903 34.1757 94.7503 41.723 94.9261 42.0401L95.6322 43.3332L94.557 44.4772C87.4971 51.9919 81.3201 54.4962 81.0602 54.6L79.3464 55.2852V55.2852Z"/>
</mask>
<path d="M79.3464 55.2852L78.1058 54.1113C58.2229 35.323 42.4311 40.6057 39.4557 41.8579C38.9577 42.0689 37.1386 42.8014 37.1386 42.8014L35.0849 38.6902C35.0884 38.6898 36.8254 37.9892 37.3065 37.7865C40.7901 36.319 58.9062 30.1509 80.6052 49.6872C82.4555 48.6555 85.7499 46.5304 89.4675 42.8104C88.0807 40.3703 84.9349 34.9517 81.7897 30.4348C77.5735 24.3746 71.7503 16.8781 71.7503 16.8781C73.7949 16.1395 76.5597 14.7237 76.5597 14.7237C76.5597 14.7237 82.0131 21.8432 86.2823 27.9838C90.5903 34.1757 94.7503 41.723 94.9261 42.0401L95.6322 43.3332L94.557 44.4772C87.4971 51.9919 81.3201 54.4962 81.0602 54.6L79.3464 55.2852V55.2852Z" fill="#5C410D"/>
<path d="M78.1058 54.1113L82.2437 49.7383L82.2407 49.7355L78.1058 54.1113ZM39.4557 41.8579L37.1205 36.3089L37.1137 36.3118L37.1068 36.3147L39.4557 41.8579ZM37.1386 42.8014L31.7528 45.4918L34.2349 50.4607L39.3873 48.3861L37.1386 42.8014ZM35.0849 38.6902L34.3439 32.7156L25.8941 33.7636L29.6991 41.3806L35.0849 38.6902ZM37.3065 37.7865L34.9692 32.2384L34.9688 32.2386L37.3065 37.7865ZM80.6052 49.6872L76.577 54.1614L79.7768 57.0423L83.5373 54.9454L80.6052 49.6872ZM89.4675 42.8104L93.7259 47.0661L96.9676 43.8224L94.7016 39.8355L89.4675 42.8104ZM81.7897 30.4348L76.8477 33.8731L76.8491 33.875L81.7897 30.4348ZM71.7503 16.8781L69.7046 11.216L61.9148 14.0303L66.9958 20.5714L71.7503 16.8781ZM76.5597 14.7237L81.3391 11.0628L78.2855 7.07629L73.8157 9.36502L76.5597 14.7237ZM86.2823 27.9838L81.3392 31.4205L81.3404 31.4222L86.2823 27.9838ZM94.9261 42.0401L100.21 39.1548L100.201 39.1383L100.192 39.1218L94.9261 42.0401ZM95.6322 43.3332L100.019 47.4563L103.007 44.2772L100.916 40.4479L95.6322 43.3332ZM94.557 44.4772L90.1701 40.3541L90.1693 40.355L94.557 44.4772ZM81.0602 54.6L78.8285 49.0085L78.825 49.0099L81.0602 54.6ZM83.4843 50.9123L82.2437 49.7383L73.9679 58.4842L75.2085 59.6582L83.4843 50.9123ZM82.2407 49.7355C71.4676 39.5555 61.3976 35.5467 53.205 34.4978C45.0859 33.4582 39.3107 35.3872 37.1205 36.3089L41.791 47.4069C42.5762 47.0765 46.1845 45.7379 51.6759 46.441C57.0938 47.1347 64.861 49.8787 73.9709 58.4871L82.2407 49.7355ZM37.1068 36.3147C36.9119 36.3973 36.384 36.6125 35.8495 36.8291C35.5944 36.9325 35.3541 37.0295 35.1775 37.1008C35.0893 37.1364 35.0171 37.1655 34.9671 37.1857C34.9421 37.1957 34.9227 37.2036 34.9095 37.2088C34.903 37.2115 34.898 37.2135 34.8947 37.2148C34.893 37.2155 34.8918 37.216 34.891 37.2163C34.8906 37.2165 34.8903 37.2166 34.8901 37.2167C34.89 37.2167 34.89 37.2167 34.8899 37.2167C34.8899 37.2168 34.8899 37.2168 34.8899 37.2168C34.8899 37.2168 34.8899 37.2168 37.1386 42.8014C39.3873 48.3861 39.3873 48.3861 39.3873 48.386C39.3873 48.386 39.3874 48.386 39.3874 48.386C39.3875 48.386 39.3876 48.3859 39.3877 48.3859C39.388 48.3858 39.3883 48.3856 39.3888 48.3854C39.3898 48.3851 39.3911 48.3845 39.3929 48.3838C39.3966 48.3823 39.4018 48.3802 39.4087 48.3774C39.4225 48.3719 39.4426 48.3638 39.4683 48.3534C39.5198 48.3327 39.5936 48.3029 39.6837 48.2665C39.8637 48.1939 40.1094 48.0946 40.3713 47.9885C40.8709 47.7861 41.5016 47.5296 41.8047 47.4011L37.1068 36.3147ZM42.5244 40.111L40.4707 35.9998L29.6991 41.3806L31.7528 45.4918L42.5244 40.111ZM35.8259 44.6648C36.2178 44.603 36.7307 44.4813 36.8558 44.4442C36.9177 44.4248 37.0159 44.3925 37.0525 44.38C37.1167 44.3578 37.1666 44.3393 37.1813 44.3338C37.2195 44.3196 37.2494 44.3081 37.257 44.3051C37.2786 44.2968 37.2962 44.2898 37.3014 44.2878C37.3158 44.2821 37.3294 44.2767 37.3377 44.2733C37.3566 44.2658 37.3802 44.2563 37.4058 44.246C37.4581 44.225 37.5309 44.1957 37.6176 44.1608C37.7915 44.0906 38.0271 43.9954 38.2777 43.8938C38.759 43.6988 39.357 43.4555 39.6442 43.3345L34.9688 32.2386C34.8824 32.2749 34.7115 32.3454 34.48 32.44C34.2567 32.5312 34 32.6355 33.7554 32.7346C33.5113 32.8336 33.2819 32.9262 33.1141 32.9939C33.03 33.0278 32.9627 33.0549 32.9174 33.0731C32.8942 33.0824 32.8797 33.0882 32.8726 33.0911C32.8679 33.093 32.8715 33.0915 32.879 33.0885C32.8808 33.0878 32.8958 33.0819 32.9157 33.0742C32.9224 33.0717 32.9516 33.0604 32.9893 33.0463C33.0038 33.041 33.0534 33.0225 33.1175 33.0004C33.154 32.9879 33.2522 32.9556 33.314 32.9362C33.4391 32.8992 33.952 32.7774 34.3439 32.7156L35.8259 44.6648ZM39.6438 43.3347C40.7538 42.8671 45.1419 41.2551 51.5655 41.8547C57.8938 42.4454 66.6451 45.2194 76.577 54.1614L84.6335 45.2131C72.8663 34.6187 61.7101 30.7086 52.6846 29.8661C43.7545 29.0325 37.3428 31.2384 34.9692 32.2384L39.6438 43.3347ZM83.5373 54.9454C85.802 53.6825 89.5604 51.2342 93.7259 47.0661L85.2092 38.5547C81.9393 41.8266 79.1089 43.6285 77.6731 44.4291L83.5373 54.9454ZM94.7016 39.8355C93.2991 37.368 90.0412 31.7494 86.7304 26.9946L76.8491 33.875C79.8286 38.154 82.8623 43.3727 84.2335 45.7853L94.7016 39.8355ZM86.7317 26.9965C84.5592 23.8739 81.9964 20.4143 79.9972 17.761C78.9933 16.4287 78.1229 15.2881 77.5027 14.4797C77.1925 14.0753 76.9445 13.7536 76.7734 13.532C76.6878 13.4212 76.6214 13.3355 76.5761 13.2769C76.5534 13.2476 76.5359 13.2251 76.524 13.2097C76.518 13.202 76.5134 13.196 76.5102 13.1919C76.5086 13.1898 76.5073 13.1882 76.5064 13.187C76.5059 13.1864 76.5056 13.186 76.5053 13.1856C76.5052 13.1854 76.505 13.1853 76.5049 13.1852C76.5048 13.185 76.5047 13.1849 71.7503 16.8781C66.9958 20.5714 66.9958 20.5713 66.9957 20.5713C66.9958 20.5713 66.9958 20.5713 66.9958 20.5714C66.9959 20.5715 66.996 20.5717 66.9963 20.572C66.9968 20.5726 66.9977 20.5738 66.9989 20.5753C67.0013 20.5784 67.0051 20.5833 67.0102 20.59C67.0206 20.6033 67.0364 20.6236 67.0573 20.6507C67.0993 20.7049 67.1622 20.7861 67.2441 20.8922C67.4079 21.1043 67.6478 21.4156 67.9494 21.8087C68.5528 22.5952 69.4017 23.7075 70.3806 25.0068C72.3472 27.6168 74.8041 30.9356 76.8477 33.8731L86.7317 26.9965ZM73.7959 22.5403C75.0897 22.0729 76.4965 21.4373 77.4886 20.9697C78.0048 20.7264 78.4504 20.5087 78.7687 20.3509C78.9284 20.2718 79.0573 20.2071 79.1486 20.1611C79.1942 20.1381 79.2305 20.1197 79.2566 20.1064C79.2697 20.0998 79.2802 20.0944 79.2881 20.0904C79.292 20.0884 79.2953 20.0867 79.2979 20.0854C79.2992 20.0847 79.3003 20.0841 79.3013 20.0837C79.3017 20.0834 79.3022 20.0832 79.3026 20.083C79.3028 20.0829 79.303 20.0827 79.3031 20.0827C79.3034 20.0826 79.3036 20.0824 76.5597 14.7237C73.8157 9.36502 73.816 9.36491 73.8162 9.3648C73.8162 9.36477 73.8164 9.36467 73.8166 9.36461C73.8168 9.36449 73.817 9.3644 73.8171 9.36433C73.8174 9.36418 73.8175 9.36412 73.8175 9.36414C73.8174 9.36418 73.8167 9.36455 73.8153 9.36524C73.8126 9.36663 73.8073 9.36931 73.7996 9.37323C73.7842 9.38105 73.7592 9.39378 73.7252 9.4109C73.6573 9.44518 73.5542 9.49688 73.4227 9.56203C73.1588 9.69282 72.7854 9.87522 72.3548 10.0782C71.4533 10.5031 70.4554 10.9447 69.7046 11.216L73.7959 22.5403ZM76.5597 14.7237C71.7803 18.3847 71.7802 18.3846 71.7802 18.3846C71.7802 18.3846 71.7802 18.3846 71.7803 18.3846C71.7803 18.3847 71.7805 18.3849 71.7807 18.3852C71.7812 18.3859 71.782 18.3869 71.7831 18.3884C71.7854 18.3913 71.789 18.396 71.7938 18.4023C71.8035 18.415 71.8183 18.4344 71.838 18.4601C71.8774 18.5117 71.9365 18.5891 72.0135 18.6902C72.1675 18.8924 72.3936 19.1896 72.6786 19.5661C73.2488 20.3192 74.0541 21.3881 74.9914 22.6468C76.8722 25.1725 79.2587 28.428 81.3392 31.4205L91.2254 24.5472C89.0367 21.399 86.5619 18.0245 84.6487 15.4553C83.6889 14.1665 82.8641 13.0717 82.2784 12.2981C81.9854 11.9112 81.752 11.6042 81.5912 11.3931C81.5108 11.2876 81.4485 11.2059 81.4059 11.1502C81.3846 11.1224 81.3683 11.101 81.3571 11.0863C81.3515 11.079 81.3472 11.0734 81.3442 11.0694C81.3426 11.0675 81.3415 11.0659 81.3406 11.0648C81.3402 11.0643 81.3399 11.0638 81.3396 11.0635C81.3395 11.0633 81.3393 11.0632 81.3393 11.0631C81.3392 11.0629 81.3391 11.0628 76.5597 14.7237ZM81.3404 31.4222C85.4526 37.3327 89.4797 44.6325 89.6603 44.9584L100.192 39.1218C100.021 38.8135 95.7279 31.0187 91.2243 24.5455L81.3404 31.4222ZM89.6422 44.9254L90.3483 46.2185L100.916 40.4479L100.21 39.1548L89.6422 44.9254ZM91.2453 39.2101L90.1701 40.3541L98.9439 48.6003L100.019 47.4563L91.2453 39.2101ZM90.1693 40.355C83.8575 47.0733 78.4945 49.1418 78.8285 49.0085L83.2918 60.1915C84.1457 59.8507 91.1367 56.9104 98.9448 48.5994L90.1693 40.355ZM78.825 49.0099L77.1113 49.6951L81.5816 60.8753L83.2953 60.1901L78.825 49.0099Z" fill="#68490C" mask="url(#path-3-inside-1_133_15)"/>
<path d="M40.6655 56.7471L40.6729 56.7473C41.2626 56.7642 41.7514 56.9383 41.9592 57.0157C42.2347 57.1183 42.5044 57.2434 42.7448 57.3638C43.2294 57.6066 43.7845 57.9265 44.3611 58.2784C45.5242 58.9882 46.9617 59.9435 48.455 60.9713C49.9502 62.0005 51.5355 63.126 53.012 64.1936C51.8125 63.2834 50.6752 62.4218 49.5719 61.6202L40.6655 56.7471ZM40.6655 56.7471C39.5959 56.7192 38.604 57.1493 38.1124 57.3722C37.4907 57.6543 36.8292 58.0185 36.2669 58.3316C36.1815 58.3791 36.098 58.4257 36.0161 58.4714C35.5159 58.7504 35.0762 58.9956 34.6622 59.2046C34.5483 59.2621 34.444 59.3128 34.3489 59.3572C34.2079 59.3035 34.0414 59.2373 33.848 59.1572C32.9603 58.7897 31.7286 58.2226 30.2349 57.4985C27.2601 56.0563 23.4067 54.0695 19.5209 52.0136C15.6401 49.9603 11.7513 47.851 8.7141 46.1702C7.19475 45.3294 5.89549 44.5997 4.92027 44.04C4.4319 43.7597 4.03319 43.5269 3.73261 43.3468C3.58221 43.2566 3.46357 43.184 3.37455 43.128C3.29793 43.0798 3.26158 43.0555 3.25319 43.0498C3.25093 43.0483 3.2507 43.0482 3.25227 43.0493L3.24761 43.046C3.0767 42.9251 3.0273 42.8438 3.02028 42.8321C3.01729 42.8271 3.01534 42.8233 3.01404 42.8204L7.26533 36.5473M40.6655 56.7471L7.26533 36.5473M7.26533 36.5473C9.59191 38.1924 13.5536 40.7877 19.6556 43.4955L7.26533 36.5473ZM77.4837 79.609C69.6638 76.1388 63.5111 71.939 59.2684 68.8224C64.2077 72.3099 70.3592 76.1453 78.803 79.8936C81.1505 80.9357 83.3934 81.8366 85.5427 82.622C82.6655 81.6975 79.9242 80.6927 77.4844 79.6093L77.4837 79.609ZM111.706 88.9063C111.16 88.8122 110.613 88.7134 110.067 88.6096C110.619 88.7078 111.165 88.8063 111.706 88.9063ZM19.6563 43.4958C29.1345 47.7049 42.8944 56.7716 49.5712 61.6197L19.6563 43.4958Z" fill="#68490C" stroke="#68490C" stroke-width="6"/>
</svg>
