<svg width="363" height="161" viewBox="0 0 363 161" fill="none" xmlns="http://www.w3.org/2000/svg">
<path d="M362 81.0005C362 103.618 357.972 119.724 350.236 131.212C342.516 142.676 331.015 149.671 315.783 153.891C300.525 158.119 281.595 159.542 259.118 159.899C246.065 160.107 231.869 159.955 216.535 159.791C205.45 159.673 193.771 159.548 181.5 159.548C173.18 159.548 164.735 159.661 156.264 159.773C143.45 159.943 130.574 160.115 117.977 159.899C97.0747 159.542 77.0815 158.12 59.7151 153.883C42.35 149.647 27.6943 142.616 17.3771 131.103C7.07549 119.607 1 103.532 1 81.0005C1 58.038 6.59844 41.6928 16.2973 30.0372C26.0031 18.3734 39.916 11.2841 56.7791 7.03533C73.6489 2.78487 93.3916 1.39713 114.663 1.0787C127.065 0.89304 139.932 1.07025 153.032 1.25068C162.429 1.3801 171.947 1.51119 181.5 1.51119C190.098 1.5112 198.672 1.41928 207.157 1.32833C221.228 1.17749 235.053 1.02929 248.331 1.30727C269.601 1.75258 289.344 3.29201 306.215 7.6437C323.081 11.9939 336.997 19.1345 346.705 30.7256C356.404 42.3067 362 58.449 362 81.0005Z" fill="white" stroke="#68490C" stroke-width="2"/>
</svg>
