<svg width="58" height="47" viewBox="0 0 58 47" fill="none" xmlns="http://www.w3.org/2000/svg">
<path d="M56.5968 9.63172C55.6968 7.7469 54.3993 6.0389 52.7766 4.60333C51.1528 3.16347 49.2383 2.01924 47.1371 1.23285C44.9583 0.414175 42.6215 -0.00486919 40.2622 4.26859e-05C36.9524 4.26859e-05 33.7231 0.819889 30.9167 2.36849C30.2454 2.73894 29.6076 3.14582 29.0033 3.58915C28.3991 3.14582 27.7613 2.73894 27.0899 2.36849C24.2836 0.819889 21.0543 4.26859e-05 17.7444 4.26859e-05C15.361 4.26859e-05 13.0515 0.413002 10.8695 1.23285C8.76142 2.02233 6.86143 3.15797 5.23 4.60333C3.60525 6.03728 2.30736 7.74569 1.40988 9.63172C0.476675 11.5933 0 13.6763 0 15.82C0 17.8423 0.456534 19.9496 1.36289 22.0934C2.12154 23.8849 3.20916 25.7432 4.59891 27.6197C6.80101 30.5894 9.8289 33.6866 13.5886 36.8263C19.8189 42.0308 25.9889 45.626 26.2507 45.7718L27.8418 46.6948C28.5468 47.1017 29.4531 47.1017 30.1581 46.6948L31.7492 45.7718C32.0111 45.6199 38.1743 42.0308 44.4113 36.8263C48.171 33.6866 51.1989 30.5894 53.401 27.6197C54.7908 25.7432 55.8851 23.8849 56.637 22.0934C57.5434 19.9496 57.9999 17.8423 57.9999 15.82C58.0066 13.6763 57.53 11.5933 56.5968 9.63172Z" fill="#FF0303"/>
</svg>
