<svg width="564" height="577" viewBox="0 0 564 577" fill="none" xmlns="http://www.w3.org/2000/svg">
<path d="M563 290.294C563 371.685 556.718 430.105 544.497 471.965C532.283 513.803 514.16 539.022 490.514 554.134C466.835 569.267 437.477 574.36 402.585 575.639C382.309 576.383 360.273 575.84 336.461 575.253C319.238 574.829 301.086 574.381 282 574.381C269.104 574.381 255.98 574.783 242.82 575.186C239.433 575.29 236.043 575.394 232.654 575.491C216.089 575.965 199.535 576.279 183.316 575.639C150.87 574.361 119.854 569.272 92.9026 554.105C39.097 523.827 1 453.062 1 290.294C1 124.573 36.0671 52.9832 88.3417 22.6029C114.521 7.38812 145.146 2.422 178.166 1.28183C194.672 0.711887 211.751 1.09823 229.151 1.62838C232.025 1.71596 234.908 1.80746 237.799 1.8992C252.399 2.36256 267.192 2.83203 282 2.83204C295.377 2.83206 308.707 2.50236 321.892 2.17621C343.744 1.63574 365.2 1.10504 385.82 2.10083C418.836 3.6952 449.465 9.20395 475.649 24.783C527.938 55.8929 563 127.498 563 290.294Z" fill="white" stroke="#68490C" stroke-width="2"/>
</svg>
