<svg width="584" height="799" viewBox="0 0 584 799" fill="none" xmlns="http://www.w3.org/2000/svg">
<path d="M582.5 401.984C582.5 514.701 575.995 595.626 563.334 653.621C550.672 711.622 531.893 746.508 507.491 767.363C483.106 788.205 452.875 795.234 416.825 797.002C398.801 797.885 379.375 797.452 358.544 796.795C355.187 796.689 351.794 796.578 348.365 796.465C330.531 795.878 311.726 795.259 292 795.259C278.63 795.259 265.02 795.816 251.39 796.374C247.886 796.518 244.38 796.661 240.877 796.796C223.727 797.452 206.614 797.885 189.854 797.002C156.342 795.235 124.372 788.212 96.5912 767.305C68.8123 746.4 45.0332 711.47 28.1989 653.522C11.3607 595.562 1.5 514.668 1.5 401.984C1.5 287.273 10.5728 205.069 26.431 146.283C42.2869 87.5046 64.8928 52.257 91.8745 31.2864C118.853 10.3182 150.41 3.4645 184.518 1.8895C201.575 1.10185 219.231 1.63547 237.248 2.36955C240.221 2.49071 243.205 2.61735 246.197 2.74434C261.315 3.38601 276.65 4.0369 292 4.03692C305.82 4.03694 319.634 3.58044 333.286 3.1293C337.789 2.9805 342.274 2.83228 346.735 2.70122C364.746 2.17218 382.401 1.92152 399.455 3.02287C433.555 5.22508 465.121 12.8264 492.112 34.3019C519.107 55.7807 541.714 91.2903 557.57 149.689C573.427 208.098 582.5 289.292 582.5 401.984Z" fill="white" stroke="#68490C" stroke-width="3"/>
</svg>
