<svg width="64" height="63" viewBox="0 0 64 63" fill="none" xmlns="http://www.w3.org/2000/svg">
<path d="M56.8889 0H7.11111C3.2 0 0 3.15 0 7V56C0 59.85 3.2 63 7.11111 63H56.8889C60.8 63 64 59.85 64 56V7C64 3.15 60.8 0 56.8889 0ZM32 10.5C38.8622 10.5 44.4444 15.995 44.4444 22.75C44.4444 29.505 38.8622 35 32 35C25.1378 35 19.5556 29.505 19.5556 22.75C19.5556 15.995 25.1378 10.5 32 10.5ZM56.8889 56H7.11111V55.195C7.11111 53.025 8.10667 50.995 9.81333 49.665C15.8933 44.87 23.6089 42 32 42C40.3911 42 48.1067 44.87 54.1867 49.665C55.8933 50.995 56.8889 53.06 56.8889 55.195V56V56Z" fill="#68490C"/>
</svg>
